# xmcd
#
# Track frame offsets:
# 150
# 43735
# 60165
# 78732
# 91735
# 118037
# 132915
# 149012
# 165910
# 200600
#
# Disc length: 3097 seconds
#
#
# Revision: 0
# Processed by: cddbd v1.5.2PL0 Copyright (c) Steve Scherf et al.
# Submitted via: Nero 7, 11, 10, 0 
#
DISCID=850c170a
DTITLE=Paul Filipowicz - Go For The Throat
DYEAR=1996
DGENRE=Blues
TTITLE0=Big Jake
TTITLE1=What's The Matter With That Jenny
TTITLE2=I Wasn't Born In Hell
TTITLE3=Dancing On the Bar Room Floor
TTITLE4=24 Hour A Day Blues Man
TTITLE5=Blue Angel
TTITLE6=Donna Mae
TTITLE7=Fender Bender
TTITLE8=Passionate Crime
TTITLE9=Mule Box
EXTD=
EXTT0=Big Jake
EXTT1=What's The Matter With That Jenny
EXTT2=I Wasn't Born In Hell
EXTT3=Dancing On the Bar Room Floor
EXTT4=24 Hour A Day Blues Man
EXTT5=Blue Angel
EXTT6=Donna Mae
EXTT7=Fender Bender
EXTT8=Passionate Crime
EXTT9=Mule Box
PLAYORDER=
